<svg width="17" height="17" viewBox="0 0 17 17" fill="none" xmlns="http://www.w3.org/2000/svg">
<path d="M11.9235 2.48049C11.3541 2.47892 10.7912 2.60065 10.2733 2.83731C9.75543 3.07398 9.29495 3.41996 8.9235 3.85149C8.55205 3.41996 8.09157 3.07398 7.5737 2.83731C7.05584 2.60065 6.49287 2.47892 5.9235 2.48049C5.13809 2.4817 4.37042 2.71411 3.71622 3.14873C3.06203 3.58335 2.55026 4.20095 2.24473 4.92449C1.93921 5.64804 1.85346 6.44552 1.99817 7.21749C2.14288 7.98945 2.51166 8.70172 3.0585 9.26549L8.5665 14.8945C8.61304 14.942 8.66859 14.9797 8.72989 15.0055C8.79119 15.0312 8.85701 15.0445 8.9235 15.0445C8.99023 15.0445 9.05628 15.0311 9.11776 15.0052C9.17925 14.9793 9.23492 14.9413 9.2815 14.8935L14.5965 9.43949C15.1989 8.90011 15.6231 8.19038 15.8128 7.40439C16.0026 6.61841 15.9489 5.79331 15.659 5.03851C15.3691 4.28371 14.8566 3.63487 14.1894 3.17802C13.5223 2.72118 12.7321 2.47791 11.9235 2.48049Z" fill="#F9FAFB"/>
</svg>
